<?xml version="1.0" standalone="no"?>
<!DOCTYPE svg PUBLIC "-//W3C//DTD SVG 20010904//EN"
 "http://www.w3.org/TR/2001/REC-SVG-20010904/DTD/svg10.dtd">
<svg version="1.0" xmlns="http://www.w3.org/2000/svg"
 width="639.762" height="169.238" viewBox="0 0 639.762 169.238"
 preserveAspectRatio="xMidYMid meet">
<metadata>
Created by potrace 1.10, written by Peter Selinger 2001-2011
</metadata>
<g transform="translate(0.000000,300.000000) scale(0.100000,-0.100000)"
fill="#000000" stroke="none">
<path d="M1550 2501 c-57 -30 -90 -80 -97 -144 -8 -81 17 -126 124 -219 49
-42 115 -101 148 -132 33 -31 67 -55 77 -53 27 4 315 264 332 301 22 46 20
123 -3 166 -32 60 -83 93 -150 98 -64 5 -105 -10 -153 -56 l-28 -26 -27 26
c-64 60 -155 76 -223 39z m67 -7 c-3 -3 -12 -4 -19 -1 -8 3 -5 6 6 6 11 1 17
-2 13 -5z m56 -1 c-7 -2 -19 -2 -25 0 -7 3 -2 5 12 5 14 0 19 -2 13 -5z m274
1 c-3 -3 -12 -4 -19 -1 -8 3 -5 6 6 6 11 1 17 -2 13 -5z m60 0 c-3 -3 -12 -4
-19 -1 -8 3 -5 6 6 6 11 1 17 -2 13 -5z m-257 -44 c44 -37 56 -37 99 0 19 16
37 27 39 25 3 -3 -7 -14 -22 -26 -14 -11 -33 -27 -40 -35 -19 -18 -28 -18 -52
4 -10 9 -32 27 -48 40 -16 12 -25 22 -19 22 5 0 24 -13 43 -30z m336 -5 c37
-48 27 -50 -15 -3 -18 21 -29 38 -23 38 6 0 23 -16 38 -35z m-403 11 c18 -7
48 -30 66 -50 19 -20 42 -36 51 -36 9 0 32 16 51 36 36 38 84 64 120 64 40 0
90 -32 109 -71 40 -78 24 -117 -92 -219 -46 -41 -106 -95 -133 -122 l-51 -48
-141 125 c-150 133 -171 164 -158 225 4 17 18 44 33 61 41 49 86 60 145 35z
m-170 -29 c-15 -19 -30 -33 -32 -31 -6 5 40 64 51 64 5 0 -3 -15 -19 -33z
m583 -188 c-8 -12 -45 -49 -83 -82 -37 -33 -90 -80 -116 -104 -26 -25 -51 -42
-54 -39 -4 4 4 14 18 24 22 15 61 50 196 177 23 22 43 47 44 55 0 10 2 11 6 3
2 -7 -2 -22 -11 -34z m-580 4 c-7 -7 -26 7 -26 19 0 6 6 6 15 -2 9 -7 13 -15
11 -17z m30 -34 c19 -22 19 -22 -3 -10 -24 12 -39 31 -25 31 5 0 17 -10 28
-21z m262 -206 c14 3 21 0 19 -7 -10 -29 -43 -14 -120 55 -94 83 -137 125
-137 134 0 4 48 -37 108 -90 82 -74 112 -95 130 -92z"/>
<path d="M949 2212 c-24 -21 -32 -39 -36 -74 -5 -40 -1 -52 23 -85 44 -60 66
-83 75 -77 7 4 1 15 -36 58 -27 32 -46 86 -30 86 11 0 50 -26 58 -37 6 -9 41
-13 116 -13 94 0 111 3 131 20 13 11 27 20 32 20 5 0 13 10 18 23 8 21 9 21 9
-6 1 -15 -12 -48 -29 -75 -16 -26 -30 -42 -30 -36 0 5 5 15 11 21 6 6 9 19 7
28 -2 13 -15 2 -46 -41 l-43 -59 -55 2 c-54 1 -55 2 -98 57 -24 31 -46 53 -49
50 -8 -8 32 -72 56 -89 26 -18 25 -20 -48 -34 -176 -34 -355 -174 -442 -344
-59 -118 -79 -301 -47 -437 74 -316 390 -535 708 -491 l78 11 55 -49 c61 -55
142 -101 230 -132 85 -30 251 -37 345 -15 241 58 434 253 488 496 14 67 12
218 -5 285 -74 291 -333 495 -630 495 -38 0 -90 -5 -113 -10 l-44 -11 -59 55
c-69 64 -175 119 -274 143 -38 9 -72 17 -74 19 -1 1 7 13 19 26 l23 23 -6 -22
c-9 -39 10 -25 58 41 40 57 45 68 39 102 -7 50 -28 82 -60 94 -14 6 -86 10
-159 10 -133 0 -135 0 -166 -28z m61 -2 c0 -5 -8 -10 -17 -10 -15 0 -16 2 -3
10 19 12 20 12 20 0z m94 -2 c-5 -8 -60 -5 -69 4 -2 2 13 4 34 4 22 0 37 -4
35 -8z m170 -4 c9 -3 16 -11 16 -16 0 -7 -4 -7 -12 0 -7 5 -24 12 -38 15 -22
4 -22 4 -3 6 12 0 28 -2 37 -5z m-311 -24 c-3 -12 -8 -19 -11 -16 -5 6 5 36
12 36 2 0 2 -9 -1 -20z m295 -6 c12 -8 22 -23 22 -32 0 -15 -16 -17 -160 -17
-171 0 -184 4 -134 44 23 18 41 21 138 21 85 0 117 -4 134 -16z m-139 -240 c2
-2 -22 -4 -55 -3 -42 0 -53 3 -39 9 18 8 83 3 94 -6z m106 6 c14 -6 2 -8 -40
-8 -48 0 -54 2 -30 8 40 10 46 10 70 0z m82 -26 c-3 -3 -12 -4 -19 -1 -8 3 -5
6 6 6 11 1 17 -2 13 -5z m18 -38 c353 -135 496 -544 303 -863 -35 -58 -125
-152 -175 -184 l-31 -20 -21 29 -21 30 41 28 c257 177 294 548 78 778 -274
294 -758 174 -876 -216 -21 -69 -21 -207 0 -276 39 -129 133 -249 242 -312 72
-41 194 -72 273 -68 61 3 63 2 83 -29 l20 -32 -37 -7 c-20 -4 -73 -4 -118 -1
-252 17 -456 181 -534 431 -25 81 -22 244 7 331 64 195 223 346 421 400 88 24
257 15 345 -19z m176 -63 c13 -16 12 -17 -3 -4 -10 7 -18 15 -18 17 0 8 8 3
21 -13z m-438 -10 c-7 -2 -19 -2 -25 0 -7 3 -2 5 12 5 14 0 19 -2 13 -5z m-46
-9 c-3 -3 -12 -4 -19 -1 -8 3 -5 6 6 6 11 1 17 -2 13 -5z m229 -28 c54 -14
147 -60 164 -81 7 -9 -7 -25 -49 -59 -186 -146 -279 -411 -225 -642 8 -37 22
-81 31 -97 l15 -30 -90 5 c-80 4 -99 9 -169 43 -377 186 -339 718 62 857 61
21 189 23 261 4z m386 -38 c21 5 22 4 9 -12 -12 -14 -12 -22 -3 -37 26 -41 -5
-15 -53 44 -45 57 -46 59 -13 30 27 -23 43 -30 60 -25z m-952 19 c0 -2 -10
-12 -22 -23 l-23 -19 19 23 c18 21 26 27 26 19z m1270 -63 c176 -55 326 -206
380 -382 66 -214 12 -432 -149 -593 -317 -316 -832 -191 -977 238 -76 226 9
499 201 644 58 44 71 43 96 -2 7 -15 4 -21 -19 -33 -46 -24 -138 -123 -171
-185 -125 -235 -52 -532 165 -676 165 -110 397 -116 559 -14 107 67 190 172
225 287 27 87 27 227 0 313 -66 214 -269 359 -500 359 -83 0 -74 -5 -108 62
-2 4 16 9 40 11 75 7 180 -4 258 -29z m-401 -115 c21 -37 21 -40 5 -31 -11 5
-26 7 -34 4 -12 -4 -13 -2 -2 9 18 19 15 34 -15 69 -19 24 -32 31 -50 27 -18
-3 -23 -1 -19 10 3 8 6 22 6 31 0 22 78 -63 109 -119z m-938 88 c-10 -9 -11
-8 -5 6 3 10 9 15 12 12 3 -3 0 -11 -7 -18z m1097 -40 c9 0 9 -4 2 -11 -5 -5
-10 -21 -11 -35 l-1 -26 -11 26 c-7 14 -19 34 -27 44 -14 17 -13 17 10 10 14
-5 31 -8 38 -8z m470 -25 c33 -43 24 -41 -19 4 -18 20 -28 35 -20 32 8 -2 25
-18 39 -36z m-375 21 c-13 -2 -35 -2 -50 0 -16 2 -5 4 22 4 28 0 40 -2 28 -4z
m110 -20 c-7 -2 -19 -2 -25 0 -7 3 -2 5 12 5 14 0 19 -2 13 -5z m-68 -13 c258
-42 438 -316 371 -567 -24 -89 -57 -145 -125 -213 -120 -119 -264 -163 -423
-129 -52 11 -144 53 -183 83 -20 15 -20 15 5 32 14 9 57 49 96 88 165 166 226
424 152 644 l-24 72 35 0 c20 0 63 -5 96 -10z m-282 -115 c56 -178 9 -355
-129 -484 -36 -34 -71 -60 -77 -58 -24 7 -50 110 -51 197 0 104 19 174 73 257
39 61 149 159 162 145 4 -4 14 -29 22 -57z m702 45 c10 -11 14 -20 8 -20 -5 0
-18 9 -28 20 -10 11 -14 20 -8 20 5 0 18 -9 28 -20z m-815 -14 c0 -2 -8 -10
-17 -17 -16 -13 -17 -12 -4 4 13 16 21 21 21 13z m277 -43 c-3 -10 -5 -4 -5
12 0 17 2 24 5 18 2 -7 2 -21 0 -30z m441 -48 c-3 -3 -9 2 -12 12 -6 14 -5 15
5 6 7 -7 10 -15 7 -18z m199 -127 c-3 -8 -6 -5 -6 6 -1 11 2 17 5 13 3 -3 4
-12 1 -19z m-1850 -80 c-3 -8 -6 -5 -6 6 -1 11 2 17 5 13 3 -3 4 -12 1 -19z
m640 -195 c-3 -10 -5 -4 -5 12 0 17 2 24 5 18 2 -7 2 -21 0 -30z m-378 -24
c57 -64 49 -63 -14 1 -27 28 -45 50 -40 49 6 -1 30 -23 54 -50z m-148 -26 c13
-16 12 -17 -3 -4 -10 7 -18 15 -18 17 0 8 8 3 21 -13z m736 -56 c9 0 10 -4 3
-12 -23 -28 31 -99 68 -90 20 5 23 3 17 -15 -4 -12 -1 -28 7 -38 7 -9 0 -6
-17 7 -35 27 -72 70 -105 125 -22 36 -22 39 -4 32 10 -5 25 -9 31 -9z m829
-19 c-9 -12 -16 -19 -16 -15 0 11 24 47 28 42 2 -2 -3 -14 -12 -27z m-980 -29
c15 -30 15 -31 -1 -25 -9 3 -23 6 -32 6 -12 0 -12 2 1 16 9 8 14 20 11 25 -4
5 -4 9 -1 9 3 0 13 -14 22 -31z m-451 -29 c10 -11 16 -20 13 -20 -3 0 -13 9
-23 20 -10 11 -16 20 -13 20 3 0 13 -9 23 -20z m298 13 c-7 -2 -21 -2 -30 0
-10 3 -4 5 12 5 17 0 24 -2 18 -5z m457 3 c0 -2 -7 -7 -16 -10 -8 -3 -12 -2
-9 4 6 10 25 14 25 6z m628 -26 c-7 -10 -14 -17 -17 -15 -4 4 18 35 25 35 2 0
-1 -9 -8 -20z m-883 -42 c16 -24 37 -49 47 -56 10 -7 18 -18 18 -24 0 -7 -6
-4 -12 5 -7 9 -25 18 -40 19 -23 2 -26 6 -22 24 3 13 -2 33 -11 48 -10 14 -15
26 -12 26 2 0 17 -19 32 -42z m825 -12 c0 -2 -8 -10 -17 -17 -16 -13 -17 -12
-4 4 13 16 21 21 21 13z m-992 -53 c-10 -2 -28 -2 -40 0 -13 2 -5 4 17 4 22 1
32 -1 23 -4z m99 1 c-3 -3 -12 -4 -19 -1 -8 3 -5 6 6 6 11 1 17 -2 13 -5z
m1023 -8 c0 -2 -8 -10 -17 -17 -16 -13 -17 -12 -4 4 13 16 21 21 21 13z m-829
-63 c13 -16 12 -17 -3 -4 -17 13 -22 21 -14 21 2 0 10 -8 17 -17z m422 0 c-23
-2 -64 -2 -90 0 -26 2 -7 3 42 3 50 0 71 -1 48 -3z m337 3 c0 -2 -8 -10 -17
-17 -16 -13 -17 -12 -4 4 13 16 21 21 21 13z m-220 -110 c0 -2 -7 -6 -15 -10
-8 -3 -15 -1 -15 4 0 6 7 10 15 10 8 0 15 -2 15 -4z m-273 -12 c-3 -3 -12 -4
-19 -1 -8 3 -5 6 6 6 11 1 17 -2 13 -5z m90 -10 c-3 -3 -12 -4 -19 -1 -8 3 -5
6 6 6 11 1 17 -2 13 -5z m61 -1 c-10 -2 -26 -2 -35 0 -10 3 -2 5 17 5 19 0 27
-2 18 -5z"/>
<path d="M2195 1848 c-30 -29 -36 -43 -46 -106 -11 -67 -11 -74 7 -87 29 -22
32 -19 40 41 l7 56 94 -93 93 -94 -42 -8 c-71 -13 -74 -15 -50 -38 19 -17 30
-19 89 -13 59 6 73 12 101 40 27 27 32 39 32 78 0 45 -3 50 -87 137 -127 132
-172 148 -238 87z m35 -19 c0 -7 10 -9 26 -5 22 6 37 -4 115 -80 94 -93 106
-112 90 -142 -9 -18 -22 -7 -123 97 -62 63 -114 118 -116 121 -2 2 -7 -2 -11
-9 -6 -9 28 -49 112 -131 120 -119 120 -119 145 -102 24 16 25 16 13 -5 -11
-22 -66 -43 -111 -43 -24 0 -23 1 7 16 41 21 39 25 -72 134 -77 75 -88 83
-106 72 -17 -11 -19 -9 -19 20 0 17 7 40 17 50 18 20 33 23 33 7z m182 -80
c49 -50 87 -94 84 -97 -3 -3 -7 -3 -9 -1 -1 3 -42 46 -92 97 -49 51 -86 92
-81 92 5 0 49 -41 98 -91z"/>
</g>
</svg>
